<?xml version="1.0" encoding="UTF-8" standalone="no"?>
<!-- Created with Inkscape (http://www.inkscape.org/) -->

<svg
   width="33.441299mm"
   height="38.614685mm"
   viewBox="0 0 33.441299 38.614685"
   version="1.1"
   id="svg5"
   inkscape:export-filename="newtitle4.svg"
   inkscape:export-xdpi="96"
   inkscape:export-ydpi="96"
   sodipodi:docname="favicon.svg"
   inkscape:version="1.2-beta (1b65182ce9, 2022-04-05)"
   xmlns:inkscape="http://www.inkscape.org/namespaces/inkscape"
   xmlns:sodipodi="http://sodipodi.sourceforge.net/DTD/sodipodi-0.dtd"
   xmlns="http://www.w3.org/2000/svg"
   xmlns:svg="http://www.w3.org/2000/svg">
  <sodipodi:namedview
     id="namedview7"
     pagecolor="#ffffff"
     bordercolor="#999999"
     borderopacity="1"
     inkscape:pageshadow="0"
     inkscape:pageopacity="0"
     inkscape:pagecheckerboard="true"
     inkscape:deskcolor="#d1d1d1"
     inkscape:document-units="mm"
     showgrid="false"
     showborder="true"
     shape-rendering="auto"
     inkscape:zoom="2"
     inkscape:cx="36.5"
     inkscape:cy="105.75"
     inkscape:window-width="958"
     inkscape:window-height="1018"
     inkscape:window-x="-7"
     inkscape:window-y="0"
     inkscape:window-maximized="0"
     inkscape:current-layer="layer2" />
  <defs
     id="defs2">
    <rect
       x="104.69782"
       y="324.69577"
       width="480.28345"
       height="159.33479"
       id="rect113" />
  </defs>
  <g
     inkscape:groupmode="layer"
     id="layer2"
     inkscape:label="Layer 2"
     style="display:inline;fill:#666666"
     transform="translate(-80.381434,-0.72924852)">
    <path
       sodipodi:type="star"
       style="fill:#00b0e6;fill-opacity:1;stroke-width:0.264583"
       id="path1896"
       inkscape:flatsided="true"
       sodipodi:sides="6"
       sodipodi:cx="114.56458"
       sodipodi:cy="119.0625"
       sodipodi:r1="21.445944"
       sodipodi:r2="18.572733"
       sodipodi:arg1="-1.5707963"
       sodipodi:arg2="-1.0471976"
       inkscape:rounded="0"
       inkscape:randomized="0"
       d="m 114.56458,97.616556 18.57274,10.722974 -10e-6,21.44594 -18.57273,10.72297 -18.57273,-10.72297 10e-7,-21.44594 z"
       transform="matrix(0.90027944,0,0,0.90027944,-6.0380556,-87.15293)"
       inkscape:transform-center-y="-1.0144582e-06" />
  </g>
  <g
     inkscape:label="Layer 1"
     inkscape:groupmode="layer"
     id="layer1"
     style="display:inline;fill:#ffffff"
     transform="translate(-80.381434,-0.0744382)">
    <g
       aria-label="melee.uk"
       transform="matrix(0.26458333,0,0,0.26458333,-29.104166,-81.568596)"
       id="text111"
       style="font-size:96px;font-family:Comfortaa;-inkscape-font-specification:Comfortaa;white-space:pre;shape-inside:url(#rect113);display:inline">
      <path
         d="m 446.93722,413.12423 q -6.816,0 -12.192,-2.784 -5.376,-2.88 -8.544,-8.352 -3.072,-5.472 -3.072,-13.344 v -24.96 q 0,-1.536 1.056,-2.592 1.056,-1.056 2.592,-1.056 1.632,0 2.688,1.056 1.056,1.056 1.056,2.592 v 24.96 q 0,5.952 2.208,9.792 2.304,3.84 6.144,5.76 3.936,1.92 8.832,1.92 4.704,0 8.448,-1.824 3.84,-1.824 6.048,-4.992 2.208,-3.168 2.208,-7.2 h 5.28 q -0.288,6.048 -3.36,10.848 -2.976,4.704 -8.064,7.488 -5.088,2.688 -11.328,2.688 z m 21.12,-0.576 q -1.632,0 -2.688,-0.96 -0.96,-1.056 -0.96,-2.784 v -45.12 q 0,-1.632 0.96,-2.592 1.056,-1.056 2.688,-1.056 1.632,0 2.688,1.056 1.056,0.96 1.056,2.592 v 45.12 q 0,1.728 -1.056,2.784 -1.056,0.96 -2.688,0.96 z"
         id="path877" />
      <path
         d="m 495.12922,394.98023 -4.512,-4.896 32.832,-29.664 q 1.152,-1.056 2.4,-0.96 1.248,0 2.304,1.152 1.056,1.152 0.96,2.496 0,1.248 -1.152,2.208 z m -2.4,17.568 q -1.632,0 -2.688,-0.96 -0.96,-1.056 -0.96,-2.688 v -67.68 q 0,-1.632 0.96,-2.592 1.056,-1.056 2.688,-1.056 1.632,0 2.592,1.056 1.056,0.96 1.056,2.592 v 67.68 q 0,1.632 -1.056,2.688 -0.96,0.96 -2.592,0.96 z m 35.52,-0.48 q -1.248,1.056 -2.592,0.864 -1.344,-0.096 -2.304,-1.344 l -21.408,-26.304 5.184,-4.608 21.6,26.592 q 0.96,1.152 0.864,2.496 -0.096,1.248 -1.344,2.304 z"
         id="path879"
         style="display:inline" />
    </g>
  </g>
</svg>
