<svg xmlns="http://www.w3.org/2000/svg" viewBox="0 0 112.94 38.615"><path d="M96.221-.84l16.721 9.654v19.308l-16.721 9.654L79.5 28.122V8.814z" fill="#00b0e6"/><path d="M18.774 26.675q-.432 0-.711-.254-.279-.279-.279-.711v-7.316q0-1.804-.94-2.845-.94-1.067-2.413-1.067-1.575 0-2.591 1.067-.991 1.041-.965 2.794H9.121q.025-1.702.737-2.997.711-1.295 1.956-2.007 1.245-.711 2.82-.711 1.499 0 2.642.711 1.168.711 1.804 2.007.66 1.295.66 3.048v7.316q0 .432-.279.711-.254.254-.686.254zm-17.781 0q-.457 0-.737-.254-.254-.279-.254-.711V13.771q0-.432.254-.711.279-.279.737-.279.432 0 .686.279.279.279.279.711V25.71q0 .432-.279.711-.254.254-.686.254zm8.916 0q-.432 0-.711-.254-.279-.279-.279-.711v-7.316q0-1.804-.94-2.845-.94-1.067-2.413-1.067-1.575 0-2.591 1.041-1.016 1.016-1.016 2.667H.561q.051-1.626.711-2.87.686-1.27 1.854-1.981 1.168-.711 2.642-.711 1.499 0 2.642.711 1.168.711 1.804 2.007.66 1.295.66 3.048v7.316q0 .432-.279.711-.254.254-.686.254zm20.448.127q-2.058 0-3.658-.889-1.575-.914-2.489-2.515-.889-1.6-.889-3.658 0-2.083.838-3.658.864-1.6 2.362-2.515 1.499-.914 3.455-.914 1.931 0 3.353.889 1.448.864 2.235 2.413.787 1.549.787 3.531 0 .406-.254.66-.254.229-.66.229H24.641V18.75H35.64l-1.092.787q.025-1.473-.533-2.642-.559-1.168-1.6-1.829-1.016-.66-2.439-.66-1.448 0-2.54.686-1.092.686-1.702 1.905-.584 1.194-.584 2.743 0 1.549.66 2.743.686 1.194 1.854 1.88 1.168.686 2.693.686.914 0 1.829-.305.94-.33 1.499-.813.279-.229.635-.229.356-.025.61.178.33.305.33.66.025.356-.279.61-.838.711-2.134 1.194-1.295.457-2.489.457zm12.294-.127q-1.016 0-1.829-.559-.787-.559-1.245-1.549-.432-.991-.432-2.286V7.802q0-.432.254-.686.279-.279.711-.279.432 0 .686.279.279.254.279.686v14.479q0 1.092.432 1.778.457.686 1.143.686h.635q.381 0 .61.279.229.254.229.686 0 .432-.33.711-.305.254-.813.254zm9.704.127q-2.058 0-3.658-.889-1.575-.914-2.489-2.515-.889-1.6-.889-3.658 0-2.083.838-3.658.864-1.6 2.362-2.515 1.499-.914 3.455-.914 1.931 0 3.353.889 1.448.864 2.235 2.413.787 1.549.787 3.531 0 .406-.254.66-.254.229-.66.229H46.639V18.75h10.999l-1.092.787q.025-1.473-.533-2.642-.559-1.168-1.6-1.829-1.016-.66-2.439-.66-1.448 0-2.54.686-1.092.686-1.702 1.905-.584 1.194-.584 2.743 0 1.549.66 2.743.686 1.194 1.854 1.88 1.168.686 2.693.686.914 0 1.829-.305.94-.33 1.499-.813.279-.229.635-.229.356-.025.61.178.33.305.33.66.025.356-.279.61-.838.711-2.134 1.194-1.295.457-2.489.457zm15.088 0q-2.058 0-3.658-.889-1.575-.914-2.489-2.515-.889-1.6-.889-3.658 0-2.083.838-3.658.864-1.6 2.362-2.515 1.499-.914 3.455-.914 1.931 0 3.353.889 1.448.864 2.235 2.413.787 1.549.787 3.531 0 .406-.254.66-.254.229-.66.229H61.728V18.75h10.999l-1.092.787q.025-1.473-.533-2.642-.559-1.168-1.6-1.829-1.016-.66-2.439-.66-1.448 0-2.54.686-1.092.686-1.702 1.905-.584 1.194-.584 2.743 0 1.549.66 2.743.686 1.194 1.854 1.88 1.168.686 2.693.686.914 0 1.829-.305.94-.33 1.499-.813.279-.229.635-.229.356-.025.61.178.33.305.33.66.025.356-.279.61-.838.711-2.134 1.194-1.295.457-2.489.457zm9.754.28q-.61 0-1.041-.432-.432-.432-.432-1.041 0-.635.432-1.067.457-.432 1.041-.432.61 0 1.041.457.432.432.432 1.041 0 .584-.432 1.041-.406.432-1.041.432zm11.075-.254q-1.804 0-3.226-.737-1.422-.762-2.261-2.21-.813-1.448-.813-3.531v-6.604q0-.406.279-.686.279-.279.686-.279.432 0 .711.279.279.279.279.686v6.604q0 1.575.584 2.591.61 1.016 1.626 1.524 1.041.508 2.337.508 1.245 0 2.235-.483 1.016-.483 1.6-1.321.584-.838.584-1.905h1.397q-.076 1.6-.889 2.87-.787 1.245-2.134 1.981-1.346.711-2.997.711zm5.588-.152q-.432 0-.711-.254-.254-.279-.254-.737V13.746q0-.432.254-.686.279-.279.711-.279.432 0 .711.279.279.254.279.686v11.939q0 .457-.279.737-.279.254-.711.254zm7.164-4.649l-1.194-1.295 8.687-7.849q.305-.279.635-.254.33 0 .61.305.279.305.254.66 0 .33-.305.584zm-.635 4.648q-.432 0-.711-.254-.254-.279-.254-.711V7.802q0-.432.254-.686.279-.279.711-.279.432 0 .686.279.279.254.279.686V25.71q0 .432-.279.711-.254.254-.686.254zm9.399-.127q-.33.279-.686.229-.356-.025-.61-.356l-5.665-6.96 1.372-1.219 5.715 7.036q.254.305.229.66-.025.33-.356.61z" fill="#fff"/></svg>