<?xml version="1.0" encoding="UTF-8" standalone="no"?>
<!-- Created with Inkscape (http://www.inkscape.org/) -->

<svg
   width="112.93975mm"
   height="38.614681mm"
   viewBox="0 0 112.93975 38.614681"
   version="1.1"
   id="svg5"
   sodipodi:docname="newtitle5.svg"
   inkscape:export-filename="newtitle5.svg"
   inkscape:export-xdpi="96"
   inkscape:export-ydpi="96"
   inkscape:version="1.2-beta (1b65182ce9, 2022-04-05)"
   xmlns:inkscape="http://www.inkscape.org/namespaces/inkscape"
   xmlns:sodipodi="http://sodipodi.sourceforge.net/DTD/sodipodi-0.dtd"
   xmlns="http://www.w3.org/2000/svg"
   xmlns:svg="http://www.w3.org/2000/svg">
  <sodipodi:namedview
     id="namedview17"
     pagecolor="#ffffff"
     bordercolor="#999999"
     borderopacity="1"
     inkscape:pageshadow="0"
     inkscape:pageopacity="0"
     inkscape:pagecheckerboard="0"
     inkscape:deskcolor="#d1d1d1"
     inkscape:document-units="mm"
     showgrid="false"
     inkscape:zoom="1"
     inkscape:cx="369.5"
     inkscape:cy="104"
     inkscape:window-width="1920"
     inkscape:window-height="1027"
     inkscape:window-x="-8"
     inkscape:window-y="-8"
     inkscape:window-maximized="1"
     inkscape:current-layer="svg5" />
  <defs
     id="defs2">
    <rect
       x="104.69782"
       y="324.69577"
       width="480.28345"
       height="159.33479"
       id="rect113" />
  </defs>
  <g
     id="layer2"
     style="display:inline;fill:#666666"
     transform="translate(-0.88298631,0.16136563)">
    <path
       style="fill:#00b0e6;fill-opacity:1;stroke-width:0.264583"
       id="path1896"
       d="m 114.56458,97.616556 18.57274,10.722974 -10e-6,21.44594 -18.57273,10.72297 -18.57273,-10.72297 10e-7,-21.44594 z"
       transform="matrix(0.90027944,0,0,0.90027944,-6.0380556,-88.043544)" />
  </g>
  <g
     id="layer1"
     style="display:inline;fill:#ffffff"
     transform="translate(-0.88298631,0.81617593)">
    <g
       aria-label="melee.uk"
       transform="matrix(0.26458333,0,0,0.26458333,-29.104166,-82.45921)"
       id="text111"
       style="font-size:96px;font-family:Comfortaa;-inkscape-font-specification:Comfortaa;white-space:pre;shape-inside:url(#rect113);display:inline">
      <path
         d="m 184.28127,412.54823 q -1.632,0 -2.688,-0.96 -1.056,-1.056 -1.056,-2.688 v -27.648 q 0,-6.816 -3.552,-10.752 -3.552,-4.032 -9.12,-4.032 -5.952,0 -9.792,4.032 -3.744,3.936 -3.648,10.56 h -6.624 q 0.096,-6.432 2.784,-11.328 2.688,-4.896 7.392,-7.584 4.704,-2.688 10.656,-2.688 5.664,0 9.984,2.688 4.416,2.688 6.816,7.584 2.496,4.896 2.496,11.52 v 27.648 q 0,1.632 -1.056,2.688 -0.96,0.96 -2.592,0.96 z m -67.2,0 q -1.728,0 -2.784,-0.96 -0.96,-1.056 -0.96,-2.688 v -45.12 q 0,-1.632 0.96,-2.688 1.056,-1.056 2.784,-1.056 1.632,0 2.592,1.056 1.056,1.056 1.056,2.688 v 45.12 q 0,1.632 -1.056,2.688 -0.96,0.96 -2.592,0.96 z m 33.696,0 q -1.632,0 -2.688,-0.96 -1.056,-1.056 -1.056,-2.688 v -27.648 q 0,-6.816 -3.552,-10.752 -3.552,-4.032 -9.12,-4.032 -5.952,0 -9.792,3.936 -3.84,3.84 -3.84,10.08 h -5.28 q 0.192,-6.144 2.688,-10.848 2.592,-4.8 7.008,-7.488 4.416,-2.688 9.984,-2.688 5.664,0 9.984,2.688 4.416,2.688 6.816,7.584 2.496,4.896 2.496,11.52 v 27.648 q 0,1.632 -1.056,2.688 -0.96,0.96 -2.592,0.96 z"
         id="path865" />
      <path
         d="m 228.05731,413.02823 q -7.776,0 -13.824,-3.36 -5.952,-3.456 -9.408,-9.504 -3.36,-6.048 -3.36,-13.824 0,-7.872 3.168,-13.824 3.264,-6.048 8.928,-9.504 5.664,-3.456 13.056,-3.456 7.296,0 12.672,3.36 5.472,3.264 8.448,9.12 2.976,5.856 2.976,13.344 0,1.536 -0.96,2.496 -0.96,0.864 -2.496,0.864 h -40.8 v -6.144 h 41.568 l -4.128,2.976 q 0.096,-5.568 -2.016,-9.984 -2.112,-4.416 -6.048,-6.912 -3.84,-2.496 -9.216,-2.496 -5.472,0 -9.6,2.592 -4.128,2.592 -6.432,7.2 -2.208,4.512 -2.208,10.368 0,5.856 2.496,10.368 2.592,4.512 7.008,7.104 4.416,2.592 10.176,2.592 3.456,0 6.912,-1.152 3.552,-1.248 5.664,-3.072 1.056,-0.864 2.4,-0.864 1.344,-0.096 2.304,0.672 1.248,1.152 1.248,2.496 0.096,1.344 -1.056,2.304 -3.168,2.688 -8.064,4.512 -4.896,1.728 -9.408,1.728 z"
         id="path867" />
      <path
         d="m 274.52134,412.54823 q -3.84,0 -6.912,-2.112 -2.976,-2.112 -4.704,-5.856 -1.632,-3.744 -1.632,-8.64 v -54.72 q 0,-1.632 0.96,-2.592 1.056,-1.056 2.688,-1.056 1.632,0 2.592,1.056 1.056,0.96 1.056,2.592 v 54.72 q 0,4.128 1.632,6.72 1.728,2.592 4.32,2.592 h 2.4 q 1.44,0 2.304,1.056 0.864,0.96 0.864,2.592 0,1.632 -1.248,2.688 -1.152,0.96 -3.072,0.96 z"
         id="path869" />
      <path
         d="m 311.19324,413.02823 q -7.776,0 -13.824,-3.36 -5.952,-3.456 -9.408,-9.504 -3.36,-6.048 -3.36,-13.824 0,-7.872 3.168,-13.824 3.264,-6.048 8.928,-9.504 5.664,-3.456 13.056,-3.456 7.296,0 12.672,3.36 5.472,3.264 8.448,9.12 2.976,5.856 2.976,13.344 0,1.536 -0.96,2.496 -0.96,0.864 -2.496,0.864 h -40.8 v -6.144 h 41.568 l -4.128,2.976 q 0.096,-5.568 -2.016,-9.984 -2.112,-4.416 -6.048,-6.912 -3.84,-2.496 -9.216,-2.496 -5.472,0 -9.6,2.592 -4.128,2.592 -6.432,7.2 -2.208,4.512 -2.208,10.368 0,5.856 2.496,10.368 2.592,4.512 7.008,7.104 4.416,2.592 10.176,2.592 3.456,0 6.912,-1.152 3.552,-1.248 5.664,-3.072 1.056,-0.864 2.4,-0.864 1.344,-0.096 2.304,0.672 1.248,1.152 1.248,2.496 0.096,1.344 -1.056,2.304 -3.168,2.688 -8.064,4.512 -4.896,1.728 -9.408,1.728 z"
         id="path871" />
      <path
         d="m 368.21723,413.02823 q -7.776,0 -13.824,-3.36 -5.952,-3.456 -9.408,-9.504 -3.36,-6.048 -3.36,-13.824 0,-7.872 3.168,-13.824 3.264,-6.048 8.928,-9.504 5.664,-3.456 13.056,-3.456 7.296,0 12.672,3.36 5.472,3.264 8.448,9.12 2.976,5.856 2.976,13.344 0,1.536 -0.96,2.496 -0.96,0.864 -2.496,0.864 h -40.8 v -6.144 h 41.568 l -4.128,2.976 q 0.096,-5.568 -2.016,-9.984 -2.112,-4.416 -6.048,-6.912 -3.84,-2.496 -9.216,-2.496 -5.472,0 -9.6,2.592 -4.128,2.592 -6.432,7.2 -2.208,4.512 -2.208,10.368 0,5.856 2.496,10.368 2.592,4.512 7.008,7.104 4.416,2.592 10.176,2.592 3.456,0 6.912,-1.152 3.552,-1.248 5.664,-3.072 1.056,-0.864 2.4,-0.864 1.344,-0.096 2.304,0.672 1.248,1.152 1.248,2.496 0.096,1.344 -1.056,2.304 -3.168,2.688 -8.064,4.512 -4.896,1.728 -9.408,1.728 z"
         id="path873" />
      <path
         d="m 405.08126,414.08423 q -2.304,0 -3.936,-1.632 -1.632,-1.632 -1.632,-3.936 0,-2.4 1.632,-4.032 1.728,-1.632 3.936,-1.632 2.304,0 3.936,1.728 1.632,1.632 1.632,3.936 0,2.208 -1.632,3.936 -1.536,1.632 -3.936,1.632 z"
         id="path875" />
      <path
         d="m 446.93722,413.12423 q -6.816,0 -12.192,-2.784 -5.376,-2.88 -8.544,-8.352 -3.072,-5.472 -3.072,-13.344 v -24.96 q 0,-1.536 1.056,-2.592 1.056,-1.056 2.592,-1.056 1.632,0 2.688,1.056 1.056,1.056 1.056,2.592 v 24.96 q 0,5.952 2.208,9.792 2.304,3.84 6.144,5.76 3.936,1.92 8.832,1.92 4.704,0 8.448,-1.824 3.84,-1.824 6.048,-4.992 2.208,-3.168 2.208,-7.2 h 5.28 q -0.288,6.048 -3.36,10.848 -2.976,4.704 -8.064,7.488 -5.088,2.688 -11.328,2.688 z m 21.12,-0.576 q -1.632,0 -2.688,-0.96 -0.96,-1.056 -0.96,-2.784 v -45.12 q 0,-1.632 0.96,-2.592 1.056,-1.056 2.688,-1.056 1.632,0 2.688,1.056 1.056,0.96 1.056,2.592 v 45.12 q 0,1.728 -1.056,2.784 -1.056,0.96 -2.688,0.96 z"
         id="path877" />
      <path
         d="m 495.12922,394.98023 -4.512,-4.896 32.832,-29.664 q 1.152,-1.056 2.4,-0.96 1.248,0 2.304,1.152 1.056,1.152 0.96,2.496 0,1.248 -1.152,2.208 z m -2.4,17.568 q -1.632,0 -2.688,-0.96 -0.96,-1.056 -0.96,-2.688 v -67.68 q 0,-1.632 0.96,-2.592 1.056,-1.056 2.688,-1.056 1.632,0 2.592,1.056 1.056,0.96 1.056,2.592 v 67.68 q 0,1.632 -1.056,2.688 -0.96,0.96 -2.592,0.96 z m 35.52,-0.48 q -1.248,1.056 -2.592,0.864 -1.344,-0.096 -2.304,-1.344 l -21.408,-26.304 5.184,-4.608 21.6,26.592 q 0.96,1.152 0.864,2.496 -0.096,1.248 -1.344,2.304 z"
         id="path879"
         style="display:inline" />
    </g>
  </g>
</svg>
