<?xml version="1.0" encoding="UTF-8" standalone="no"?>
<svg
   height="48"
   width="48"
   version="1.1"
   id="svg12"
   sodipodi:docname="volume_up.svg"
   inkscape:version="1.2-beta (1b65182ce9, 2022-04-05)"
   xmlns:inkscape="http://www.inkscape.org/namespaces/inkscape"
   xmlns:sodipodi="http://sodipodi.sourceforge.net/DTD/sodipodi-0.dtd"
   xmlns="http://www.w3.org/2000/svg"
   xmlns:svg="http://www.w3.org/2000/svg">
  <defs
     id="defs16" />
  <sodipodi:namedview
     id="namedview14"
     pagecolor="#ffffff"
     bordercolor="#999999"
     borderopacity="1"
     inkscape:pageshadow="0"
     inkscape:pageopacity="0"
     inkscape:pagecheckerboard="0"
     inkscape:deskcolor="#d1d1d1"
     showgrid="false"
     inkscape:zoom="8"
     inkscape:cx="23.125"
     inkscape:cy="26.4375"
     inkscape:window-width="958"
     inkscape:window-height="1018"
     inkscape:window-x="-7"
     inkscape:window-y="0"
     inkscape:window-maximized="0"
     inkscape:current-layer="svg12" />
  <path
     d="m 28,41.45 v -3.1 q 4.85,-1.4 7.925,-5.375 Q 39,29 39,23.95 39,18.9 35.95,14.9 32.9,10.9 28,9.55 v -3.1 q 6.2,1.4 10.1,6.275 Q 42,17.6 42,23.95 42,30.3 38.1,35.175 34.2,40.05 28,41.45 Z M 24,40 14,30 H 6 V 18 h 8 L 24,8 Z m 3,-7.6 V 15.55 q 2.7,0.85 4.35,3.2 Q 33,21.1 33,24 33,26.95 31.35,29.25 29.7,31.55 27,32.4 Z"
     id="path10"
     style="display:inline;fill:#dddddd;fill-opacity:1" />
</svg>
