<?xml version="1.0" encoding="UTF-8" standalone="no"?>
<svg
   height="48"
   width="48"
   version="1.1"
   id="svg4"
   sodipodi:docname="volume_off.svg"
   inkscape:version="1.2-beta (1b65182ce9, 2022-04-05)"
   xmlns:inkscape="http://www.inkscape.org/namespaces/inkscape"
   xmlns:sodipodi="http://sodipodi.sourceforge.net/DTD/sodipodi-0.dtd"
   xmlns="http://www.w3.org/2000/svg"
   xmlns:svg="http://www.w3.org/2000/svg">
  <defs
     id="defs8" />
  <sodipodi:namedview
     id="namedview6"
     pagecolor="#ffffff"
     bordercolor="#999999"
     borderopacity="1"
     inkscape:pageshadow="0"
     inkscape:pageopacity="0"
     inkscape:pagecheckerboard="0"
     inkscape:deskcolor="#d1d1d1"
     showgrid="false"
     inkscape:zoom="15.791667"
     inkscape:cx="24"
     inkscape:cy="24"
     inkscape:window-width="1920"
     inkscape:window-height="1027"
     inkscape:window-x="-8"
     inkscape:window-y="-8"
     inkscape:window-maximized="1"
     inkscape:current-layer="svg4" />
  <path
     d="M40.65 45.2 34.05 38.6Q32.65 39.6 31.025 40.325Q29.4 41.05 27.65 41.45V38.35Q28.8 38 29.875 37.575Q30.95 37.15 31.9 36.45L23.65 28.15V40L13.65 30H5.65V18H13.45L2.45 7L4.6 4.85L42.8 43ZM38.85 33.6 36.7 31.45Q37.7 29.75 38.175 27.85Q38.65 25.95 38.65 23.95Q38.65 18.8 35.65 14.725Q32.65 10.65 27.65 9.55V6.45Q33.85 7.85 37.75 12.725Q41.65 17.6 41.65 23.95Q41.65 26.5 40.95 28.95Q40.25 31.4 38.85 33.6ZM32.15 26.9 27.65 22.4V15.9Q30 17 31.325 19.2Q32.65 21.4 32.65 24Q32.65 24.75 32.525 25.475Q32.4 26.2 32.15 26.9ZM23.65 18.4 18.45 13.2 23.65 8Z"
     id="path2"
     style="fill:#ff4444;fill-opacity:1" />
</svg>
